<?xml version="1.0" standalone="no"?>
<!DOCTYPE svg PUBLIC "-//W3C//DTD SVG 20010904//EN"
 "http://www.w3.org/TR/2001/REC-SVG-20010904/DTD/svg10.dtd">
<svg version="1.0" xmlns="http://www.w3.org/2000/svg"
 width="741.000000pt" height="705.000000pt" viewBox="0 0 741.000000 705.000000"
 preserveAspectRatio="xMidYMid meet">

<g transform="translate(0.000000,705.000000) scale(0.100000,-0.100000)"
fill="#000000" stroke="none">
<path d="M3514 6756 c-129 -47 -248 -164 -364 -361 -29 -49 -115 -189 -190
-310 -76 -121 -223 -362 -327 -535 -104 -173 -231 -382 -282 -465 -51 -82
-194 -323 -318 -535 -254 -434 -451 -769 -704 -1200 -95 -162 -191 -329 -214
-370 -22 -41 -82 -145 -133 -230 -237 -395 -286 -478 -397 -665 -64 -110 -176
-297 -249 -415 -72 -118 -151 -255 -176 -303 -43 -86 -45 -92 -48 -191 -3 -82
0 -117 17 -172 24 -81 54 -134 76 -134 16 0 93 58 369 279 93 75 204 163 245
196 42 32 243 192 446 354 204 162 422 336 485 386 318 251 371 293 427 336
47 37 68 62 98 120 21 41 55 103 75 139 21 36 47 81 58 100 10 19 53 91 94
160 70 117 203 348 278 485 42 77 276 475 392 668 49 82 99 165 110 185 38 69
171 297 251 431 l79 133 -1 961 c-2 948 -3 980 -31 976 -3 -1 -32 -11 -66 -23z"/>
<path d="M3870 5785 c0 -1092 -9 -972 90 -1150 53 -95 180 -315 508 -880 158
-272 328 -568 375 -655 17 -30 58 -102 92 -160 35 -58 94 -162 133 -231 152
-273 381 -648 531 -874 194 -292 344 -480 548 -688 326 -332 628 -507 873
-507 76 0 178 32 232 73 94 72 122 199 74 335 -24 70 -143 296 -283 536 -35
60 -63 110 -63 112 0 2 -38 68 -83 146 -46 79 -96 166 -111 193 -33 59 -122
216 -251 440 -51 88 -106 185 -122 215 -131 237 -390 702 -409 732 -13 21 -24
40 -24 42 0 3 -15 31 -34 63 -18 32 -46 81 -61 108 -15 28 -48 88 -75 135 -77
137 -276 491 -306 545 -15 28 -94 164 -176 303 -81 140 -148 255 -148 257 0 1
-36 65 -81 141 -93 160 -254 445 -424 749 -84 152 -259 452 -324 558 -143 232
-231 333 -340 391 -42 22 -83 36 -105 36 l-36 0 0 -965z"/>
<path d="M2323 2198 c-17 -13 -91 -72 -164 -132 -188 -153 -558 -447 -944
-753 -354 -280 -384 -306 -364 -319 14 -8 4989 -7 4997 1 6 5 -76 130 -163
250 -28 39 -133 192 -234 340 -314 465 -419 618 -433 626 -7 5 -609 9 -1338 9
l-1326 0 -31 -22z"/>
</g>
</svg>
