<?xml version="1.0" standalone="no"?>
<!DOCTYPE svg PUBLIC "-//W3C//DTD SVG 20010904//EN"
 "http://www.w3.org/TR/2001/REC-SVG-20010904/DTD/svg10.dtd">
<svg version="1.0" xmlns="http://www.w3.org/2000/svg"
 width="2880.000000pt" height="1620.000000pt" viewBox="0 0 2880.000000 1620.000000"
 preserveAspectRatio="xMidYMid meet">

<g transform="translate(0.000000,1620.000000) scale(0.100000,-0.100000)"
fill="#000000" stroke="none">
<path d="M0 8100 l0 -8100 3148 0 3149 0 93 158 c96 161 187 309 245 397 295
452 580 868 799 1165 229 312 342 463 500 670 277 362 330 435 353 483 26 54
25 64 -5 48 -29 -15 -32 -14 -32 13 0 13 17 45 37 72 40 53 300 347 428 484
44 47 170 182 280 300 272 292 670 695 780 789 118 102 497 384 745 555 887
612 1654 1046 2545 1442 269 119 746 287 1030 362 441 117 649 146 1045 146
383 1 464 -10 1115 -153 127 -28 250 -55 275 -60 25 -6 81 -16 125 -22 44 -7
73 -15 66 -17 -8 -3 -44 1 -80 7 -120 22 -161 19 -161 -14 0 -8 -4 -15 -10
-15 -5 0 -10 6 -10 14 0 19 -30 29 -46 15 -10 -8 -12 -22 -8 -45 7 -41 -2 -60
-22 -43 -17 14 -44 5 -44 -15 0 -7 9 -16 20 -19 11 -3 20 -11 20 -17 0 -7 -7
-10 -16 -6 -9 4 -23 1 -30 -5 -14 -11 -41 -9 -78 6 -15 7 -17 5 -12 -12 5 -14
0 -23 -16 -31 -18 -8 -19 -11 -5 -11 24 -1 22 -21 -3 -21 -10 0 -23 -6 -27
-14 -4 -7 -20 -15 -35 -18 -21 -4 -28 -1 -30 15 -5 37 -28 32 -28 -6 0 -20 -8
-45 -20 -58 -10 -13 -19 -20 -20 -16 0 4 -9 3 -20 -3 -13 -7 -20 -20 -19 -38
3 -48 -1 -62 -15 -62 -17 0 -26 21 -26 59 0 15 -3 31 -7 34 -8 9 -32 -24 -33
-45 0 -13 -8 -18 -29 -18 -29 0 -31 -3 -42 -60 -6 -33 -17 -67 -24 -77 -11
-15 -14 -13 -31 18 -18 32 -19 33 -22 10 -2 -13 -13 -32 -25 -42 -20 -15 -22
-16 -34 0 -16 22 -31 6 -35 -39 -3 -30 -7 -35 -35 -41 -31 -6 -33 -5 -33 21 0
16 6 30 13 33 6 2 8 8 4 13 -14 14 -37 -26 -37 -64 0 -29 3 -32 20 -27 13 4
22 1 26 -9 10 -27 -5 -36 -34 -20 l-27 14 -12 -53 c-14 -67 -31 -116 -32 -97
0 8 8 58 19 110 25 119 25 158 0 254 -25 98 -74 172 -153 232 -81 61 -158 95
-287 127 -417 103 -998 30 -1740 -219 -166 -56 -439 -160 -560 -214 -36 -16
-119 -52 -185 -81 -151 -65 -475 -227 -626 -311 -223 -126 -334 -192 -337
-200 -2 -4 -8 -8 -13 -8 -10 0 -55 -28 -254 -159 -656 -433 -1268 -944 -1981
-1656 -343 -342 -491 -499 -754 -795 -137 -154 -442 -510 -510 -596 -14 -17
-95 -118 -181 -225 -228 -284 -517 -667 -682 -900 -21 -30 -71 -101 -112 -159
-41 -58 -145 -211 -231 -340 -86 -129 -165 -246 -174 -260 -61 -90 -295 -476
-378 -624 -3 -5 1 -7 7 -5 7 3 25 27 41 54 15 28 47 84 72 125 24 41 53 90 64
109 90 156 438 695 471 729 7 8 18 23 24 34 15 28 143 207 273 384 17 23 38
52 46 64 28 42 70 92 90 110 11 9 20 24 20 31 1 22 103 126 119 121 10 -3 12
0 8 11 -3 9 1 21 11 29 11 9 14 10 8 0 -4 -6 -2 -12 3 -12 6 0 11 6 11 13 0 7
15 27 33 43 17 17 80 82 138 145 59 62 162 174 230 247 68 73 150 163 182 200
32 37 133 142 225 234 92 91 172 172 177 178 6 6 38 39 73 73 166 164 511 521
516 533 3 8 11 14 17 14 14 0 324 300 395 382 11 13 131 122 240 219 33 30 71
69 84 87 12 17 29 32 36 32 7 0 18 9 24 20 6 11 16 20 23 20 14 0 47 35 47 50
0 6 5 10 11 10 11 0 90 71 133 119 36 39 51 54 126 121 40 36 98 88 129 116
31 28 81 73 111 100 30 27 82 74 115 105 33 31 107 99 165 150 58 51 110 98
116 103 6 6 35 31 64 56 29 25 92 81 140 125 120 111 230 207 260 227 14 9 54
44 90 78 36 34 80 74 98 87 17 14 32 31 32 38 0 17 38 26 44 11 2 -6 5 -5 5 4
1 14 119 110 135 110 4 0 20 8 34 18 26 18 123 72 222 124 25 12 47 26 50 29
7 10 338 169 470 227 140 62 470 195 525 212 22 7 54 18 70 26 25 11 248 84
350 115 192 58 470 122 645 148 232 35 635 50 659 25 7 -7 -11 -22 -179 -152
-194 -149 -807 -641 -1015 -813 -16 -14 -310 -262 -380 -321 -11 -9 -83 -70
-161 -135 -162 -136 -233 -197 -438 -377 -215 -188 -640 -568 -661 -590 -6 -6
-66 -63 -135 -126 -69 -63 -156 -144 -195 -181 -38 -36 -106 -99 -150 -139
-271 -251 -441 -416 -945 -920 -584 -583 -704 -708 -1281 -1325 -99 -105 -339
-371 -569 -630 -223 -250 -893 -1031 -898 -1046 -2 -5 1367 -9 3562 -9 l3566
0 -77 77 c-139 139 -194 292 -194 543 0 216 17 350 73 575 54 220 221 711 299
880 10 22 36 83 58 135 171 414 535 1159 816 1670 34 63 84 156 111 205 26 50
99 182 161 295 63 113 146 269 185 347 102 205 97 242 -32 243 -50 1 -53 2
-36 15 21 16 28 16 -124 -5 -68 -10 -330 -63 -439 -90 -44 -11 -70 -7 -33 4
11 4 23 14 26 23 6 13 4 14 -9 3 -12 -10 -19 -10 -27 -2 -9 9 -8 12 4 12 10 0
19 12 23 29 4 20 11 28 21 24 9 -3 14 2 14 16 0 12 6 21 14 21 8 0 18 9 21 20
3 11 12 20 19 20 14 0 64 101 70 140 2 16 9 25 22 25 32 0 78 45 103 100 5 11
18 29 28 40 10 11 26 45 34 75 11 41 19 55 32 54 9 -1 17 2 17 8 0 5 5 6 10 3
6 -3 10 -1 10 4 0 6 -5 11 -11 11 -5 0 -7 5 -4 11 4 6 13 8 21 5 10 -4 14 4
14 29 0 38 9 46 60 55 33 5 35 8 42 55 15 108 18 115 48 115 62 0 110 41 77
65 -15 11 -19 45 -5 45 14 0 126 119 133 141 4 10 12 19 18 19 8 0 7 4 -2 9
-12 8 -12 14 -1 40 7 17 16 31 21 31 5 0 15 15 22 32 l14 33 7 -32 c13 -57 46
-37 46 27 0 16 5 32 10 35 6 3 10 15 10 26 0 10 7 19 15 19 9 0 15 -9 15 -22
0 -16 3 -19 9 -10 10 17 2 64 -10 56 -5 -3 -9 -1 -9 4 0 5 18 17 40 28 22 10
40 24 40 29 0 6 9 17 20 25 11 8 20 26 20 41 0 14 9 34 20 44 11 10 20 27 20
38 0 11 3 18 6 14 12 -12 33 21 27 43 -5 20 -3 22 20 18 19 -4 27 -1 27 8 0 8
-9 14 -20 14 -11 0 -20 5 -20 11 0 7 10 9 25 5 20 -5 25 -3 25 14 0 11 5 20
10 20 6 0 10 22 10 49 0 46 18 81 28 53 4 -14 58 -16 66 -3 11 17 105 41 160
41 31 0 102 7 157 15 434 65 803 224 1664 715 160 91 859 478 1030 570 424
227 536 286 820 428 290 145 546 269 678 328 352 159 456 204 707 306 463 188
1010 377 1400 483 36 10 83 23 105 30 122 38 712 176 900 211 44 8 87 17 97
20 9 3 20 0 23 -7 6 -8 9 -8 15 1 8 13 70 29 110 30 17 0 21 -3 12 -8 -7 -5
-10 -16 -6 -25 4 -11 0 -19 -10 -23 -9 -3 -16 -12 -16 -19 0 -9 -12 -13 -35
-12 -26 2 -35 7 -35 19 0 11 -5 15 -15 12 -13 -5 -13 -8 0 -21 8 -8 15 -18 15
-23 0 -17 -44 -50 -67 -50 -12 0 -27 -9 -33 -20 -6 -11 -16 -17 -25 -14 -9 4
-15 0 -15 -10 0 -9 5 -16 10 -16 6 0 10 -7 10 -15 0 -11 -11 -15 -40 -15 -22
0 -40 -4 -40 -10 0 -5 15 -10 33 -10 44 -1 17 -16 -45 -25 -37 -6 -48 -4 -48
6 -1 17 -49 54 -58 45 -3 -4 -1 -16 6 -26 17 -29 16 -30 -30 -32 -41 -1 -41
-2 12 -8 46 -6 50 -7 20 -10 -19 -2 -51 -2 -70 -1 -24 1 -31 -1 -21 -7 10 -7
2 -12 -30 -17 -76 -12 -542 -116 -558 -124 -9 -5 -34 -12 -56 -15 -38 -7 -79
-18 -335 -87 -411 -112 -1126 -360 -1490 -516 -19 -8 -44 -19 -55 -23 -95 -40
-253 -109 -313 -136 -41 -19 -75 -34 -78 -34 -9 0 -322 -148 -505 -240 -523
-262 -1097 -603 -1537 -914 -127 -89 -408 -295 -444 -325 -7 -6 -87 -70 -178
-142 -133 -107 -281 -230 -310 -259 -3 -3 -43 -39 -90 -80 -276 -243 -624
-587 -855 -845 -50 -55 -93 -102 -96 -105 -31 -28 -291 -343 -440 -535 -207
-266 -476 -650 -665 -946 -161 -255 -287 -468 -444 -749 -357 -640 -678 -1325
-815 -1735 -14 -44 -30 -89 -35 -100 -6 -11 -17 -47 -26 -80 -103 -376 -127
-521 -123 -724 4 -166 -4 -217 -34 -225 -13 -3 -25 0 -30 9 -12 22 -47 19 -47
-4 0 -11 5 -21 12 -23 6 -2 12 -15 13 -29 3 -43 65 -32 65 12 0 22 15 25 23 5
15 -40 -14 -66 -73 -66 -19 0 -31 -9 -45 -37 -11 -20 -19 -42 -17 -49 1 -7 -2
-15 -8 -19 -5 -3 -10 -19 -10 -35 0 -34 -8 -41 -38 -33 -16 4 -22 13 -22 31 0
20 -3 23 -12 14 -9 -9 -9 -18 0 -37 7 -14 12 -37 12 -51 0 -17 4 -23 12 -18 8
5 9 2 5 -10 -4 -11 8 -41 33 -82 22 -37 40 -68 40 -70 0 -10 115 -124 125
-124 7 0 20 -9 30 -20 18 -20 31 -20 6872 -20 l6853 0 0 8100 0 8100 -14400 0
-14400 0 0 -8100z m25120 1840 c0 -5 -4 -10 -9 -10 -6 0 -13 5 -16 10 -3 6 1
10 9 10 9 0 16 -4 16 -10z m-2711 -983 c-2 -2 -71 -55 -154 -117 -252 -191
-582 -450 -955 -749 -485 -389 -541 -434 -730 -596 -91 -77 -221 -188 -290
-245 -69 -58 -164 -139 -211 -180 -47 -41 -141 -122 -208 -179 -67 -57 -128
-109 -134 -115 -7 -7 -91 -81 -187 -166 -96 -84 -177 -156 -180 -159 -3 -3
-43 -40 -90 -81 -47 -41 -87 -77 -90 -80 -3 -3 -48 -43 -100 -90 -84 -75 -590
-545 -775 -719 -145 -138 -643 -623 -935 -914 -253 -251 -754 -769 -1060
-1097 -84 -91 -188 -201 -229 -245 -42 -45 -119 -128 -171 -185 -52 -58 -119
-130 -148 -160 l-54 -55 110 215 c328 647 643 1175 1024 1724 90 130 243 339
285 391 5 6 48 62 97 125 265 341 495 600 856 961 475 476 905 841 1430 1211
143 101 378 258 445 298 22 13 42 27 45 30 4 5 236 146 287 175 10 6 45 26 78
46 177 107 515 288 800 428 267 132 318 155 520 244 44 19 100 44 125 55 109
51 594 241 599 236 2 -2 2 -5 0 -7z m-5581 -2144 c-10 -2 -26 -2 -35 0 -10 3
-2 5 17 5 19 0 27 -2 18 -5z m95 -10 c-7 -2 -21 -2 -30 0 -10 3 -4 5 12 5 17
0 24 -2 18 -5z m100 -10 c-7 -2 -21 -2 -30 0 -10 3 -4 5 12 5 17 0 24 -2 18
-5z m106 -9 c10 -9 -45 -3 -59 6 -11 7 -5 8 20 4 19 -4 37 -8 39 -10z m-1219
-364 c0 -11 -4 -20 -10 -20 -5 0 -10 9 -10 20 0 11 5 20 10 20 6 0 10 -9 10
-20z m-333 -392 c-3 -8 -6 -5 -6 6 -1 11 2 17 5 13 3 -3 4 -12 1 -19z m-41
-50 c-18 -26 -22 -17 -5 14 6 11 13 17 16 15 3 -3 -2 -16 -11 -29z m924 -138
c0 -12 -28 -25 -36 -17 -9 9 6 27 22 27 8 0 14 -5 14 -10z m-70 -20 c0 -5 -4
-10 -10 -10 -5 0 -10 5 -10 10 0 6 5 10 10 10 6 0 10 -4 10 -10z m11959 -492
c-174 -202 -252 -332 -489 -815 -99 -201 -204 -407 -232 -457 -103 -182 -263
-401 -363 -496 -38 -36 -32 -26 29 49 43 51 94 119 114 150 20 31 45 65 55 76
9 10 25 36 34 57 9 21 19 38 22 38 3 0 20 26 36 58 17 31 32 59 35 62 13 13
230 458 230 472 0 9 3 18 8 20 4 2 51 91 105 198 106 211 147 279 249 416 54
73 212 244 225 244 2 0 -24 -32 -58 -72z m-12279 -12 c0 -11 -19 -15 -25 -6
-3 5 1 10 9 10 9 0 16 -2 16 -4z m-320 -446 c-8 -5 -22 -9 -30 -9 -10 0 -8 3
5 9 27 12 43 12 25 0z m1257 -2726 c-3 -3 -12 -4 -19 -1 -8 3 -5 6 6 6 11 1
17 -2 13 -5z m-779 -821 c-15 -2 -42 -2 -60 0 -18 2 -6 4 27 4 33 0 48 -2 33
-4z m-1171 -615 c-3 -8 -6 -5 -6 6 -1 11 2 17 5 13 3 -3 4 -12 1 -19z m-2216
-191 c28 -54 7 -38 -25 19 -15 28 -20 41 -10 33 8 -7 24 -30 35 -52z m2475
-154 c-6 -6 -36 9 -36 18 0 5 9 4 20 -3 10 -7 18 -14 16 -15z m105 -61 c-7 -2
-18 1 -23 6 -8 8 -4 9 13 5 13 -4 18 -8 10 -11z m50 -20 c-7 -2 -18 1 -23 6
-8 8 -4 9 13 5 13 -4 18 -8 10 -11z m136 -38 c-3 -3 -12 -4 -19 -1 -8 3 -5 6
6 6 11 1 17 -2 13 -5z"/>
<path d="M24810 9810 c0 -5 11 -10 25 -10 14 0 25 5 25 10 0 6 -11 10 -25 10
-14 0 -25 -4 -25 -10z"/>
<path d="M16416 6868 c3 -5 0 -8 -7 -8 -7 0 -10 -2 -8 -4 2 -2 24 0 49 3 l45
7 -42 5 c-23 2 -39 1 -37 -3z"/>
<path d="M17080 6720 c0 -5 14 -10 30 -10 17 0 30 5 30 10 0 6 -13 10 -30 10
-16 0 -30 -4 -30 -10z"/>
<path d="M16150 6666 c0 -8 5 -18 10 -21 6 -3 10 3 10 14 0 12 -4 21 -10 21
-5 0 -10 -6 -10 -14z"/>
<path d="M15650 6331 c0 -6 5 -13 10 -16 6 -3 10 1 10 9 0 9 -4 16 -10 16 -5
0 -10 -4 -10 -9z"/>
<path d="M14810 516 c0 -9 4 -16 9 -16 5 0 14 -14 21 -31 11 -26 15 -28 22
-15 5 9 8 29 6 44 -2 21 -9 28 -30 30 -20 2 -28 -1 -28 -12z"/>
</g>
</svg>
